<svg width="24" height="24" viewBox="0 0 24 24" fill="none" xmlns="http://www.w3.org/2000/svg">
<path fill-rule="evenodd" clip-rule="evenodd" d="M13.3369 3.62908C14.5076 2.45662 16.4064 2.4559 17.578 3.62748L20.0698 6.11933C21.2314 7.28091 21.2434 9.16138 20.0969 10.3378L10.8637 19.811C10.1112 20.5832 9.07899 21.0186 8.0012 21.0185L5.24905 21.0184C3.82767 21.0183 2.69254 19.8335 2.75232 18.4123L2.87047 15.6032C2.9126 14.6016 3.3289 13.6523 4.03699 12.9431L13.3369 3.62908ZM16.1648 5.04276C15.7743 4.65224 15.1414 4.65248 14.7511 5.0433L13.2647 6.53199L17.1888 10.4561L18.6657 8.94076C19.0479 8.54863 19.0439 7.92181 18.6567 7.53461L16.1648 5.04276ZM5.45121 14.3573L11.8516 7.94727L15.7927 11.8884L9.43255 18.414C9.05627 18.8001 8.54018 19.0178 8.00128 19.0178L5.24914 19.0176C4.96486 19.0176 4.73784 18.7807 4.74979 18.4964L4.86795 15.6874C4.88901 15.1866 5.09716 14.7119 5.45121 14.3573ZM20.5148 20.9452C21.0669 20.9452 21.5144 20.4973 21.5144 19.9448C21.5144 19.3923 21.0669 18.9445 20.5148 18.9445H14.3931C13.841 18.9445 13.3935 19.3923 13.3935 19.9448C13.3935 20.4973 13.841 20.9452 14.3931 20.9452H20.5148Z" fill="#5669FF"/>
</svg>
